<?xml version="1.0" encoding="utf-8"?>
<svg xmlns="http://www.w3.org/2000/svg" version="1.1" viewBox="0 0 480 270">
  
  <g id="BG">
    <rect y="0" width="480" height="270"/>
  </g>
  <g id="design">
    <g>
      <g>
        <path d="M358.5733905,142.5052597h8.2088229c2.015206,0,3.6250745-.5106113,4.2320275-1.915345.663519-1.5137218.5380624-3.1029453-.8146779-4.8897162-.3744738-.4915515-4.872899-6.6693264-5.8131389-8.1311341-1.4370101-2.2201954-2.0007748-5.0913702-1.0553734-7.784584.9916444-2.8052555,3.4738103-4.8964555,8.0041718-4.8934017h8.2458825l-.8867286,4.2486353h-7.5711115c-1.8669966.0082136-2.893613,1.0679768-3.2804112,2.1672283-.4845511,1.3626128-.1872895,2.8469552.6665738,4.0789931,1.0399942,1.4725485,5.2534823,7.3536866,5.7287638,7.967073,1.9431554,2.5544252,2.4760563,5.7468776,1.4175227,8.5069583-1.0760195,2.8171547-3.6075885,4.9057221-8.6656514,4.9057221h-8.4166721v-4.2604291Z" fill="#fff"/>
        <polygon points="383.185658 146.7533684 388.1017453 146.7533684 393.8644082 119.1423465 399.856515 119.1423465 400.7443167 114.8916052 383.8522124 114.8916052 382.969592 119.1423465 388.9575906 119.1423465 388.9472676 119.1860469 383.185658 146.7533684" fill="#fff"/>
        <polygon points="332.2524676 162.7034151 349.2288219 81.5306518 355.9410138 87.9870569 354.0698037 155.9827011 332.2524676 162.7034151" fill="#8e1d22"/>
        <polygon points="349.2308233 81.5306518 327.4134871 88.2585264 325.5402757 156.2552237 332.2524676 162.7034151 349.2308233 81.5306518" fill="#c12c1f"/>
        <polygon points="345.6469356 98.6520822 330.2578023 109.2923615 332.4880016 113.203608 338.6858319 108.9174851 330.8287299 146.466946 335.6429561 146.466946 341.3779348 146.466946 351.3530519 98.6520822 345.6469356 98.6520822" fill="#fff"/>
        <path d="M213.8643013,139.3842024c-1.3506336.7512272-4.0607492.9913166-5.8691633.2077616-3.1302152-1.3528197-4.0699284-4.3005493-4.0699284-8.0786935,0-2.9297229.6876413-8.2652894,6.0192838-8.7002935,1.0981403-.0915078,2.3911545-.1116205,3.919808.4144702v16.1567553ZM208.5357135,152.6991622c-4.2669994.3712962-8.4808942-1.1887586-10.7533484-2.2797966l-1.7914552,6.4857844c2.339314,1.318807,5.7185314,2.3878368,9.6141268,2.8608551,5.1999562.6221265,11.0398507-1.0098499,13.69173-4.0763606,2.7136818-3.1317982,3.4934931-5.562809,3.5479525-12.6701933v-23.8504633c-3.9511985-2.2978033-8.274764-3.0834644-12.0232937-3.1168452-11.2049289-.0977206-16.0911004,6.4312377-16.0911004,15.7917772,0,10.1594686,5.2770926,13.1581646,8.5982545,14.349977,3.7186139,1.3301797,8.4639646.5204044,10.5233972-.293583l-.0021067.974363c0,4.3771042-2.5428401,5.5849225-5.3141565,5.8244854" fill="#fff"/>
        <path d="M238.0609941,139.7878264l-2.6848346,7.1310774h-9.4021881l17.0453502-46.6137847h4.1455456l18.284853,46.5849319h-10.0532773l-2.7888024-7.1022245h-14.5466464ZM250.5121675,132.8172298l-3.4604325-9.2150115-1.7991594-5.291866h-.2201548l-1.632516,5.291866-3.1467383,9.2150115h10.2590009Z" fill="#fff"/>
        <polygon points="113.2045969 104.4236005 117.4370457 104.4236005 124.4182688 125.6085446 125.9803142 130.8654502 126.1098789 130.8654502 127.3555967 125.6085446 133.0165233 104.4236005 142.2535426 104.4236005 130.9817246 146.8900509 121.9247265 146.8900509 116.8512655 131.3354147 115.0525274 125.4846037 114.9074781 125.4846037 113.0790349 131.3354147 108.1444083 146.8900509 99.0231546 146.8900509 87.5841783 104.4236005 97.6539816 104.4236005 103.1419446 125.622971 104.3208785 130.8690304 104.4473885 130.8690304 106.0654733 125.5869576 113.2045969 104.4236005" fill="#fff"/>
        <path d="M145.7042841,117.3350417h9.1558043v29.5550093h-9.1558043v-29.5550093ZM150.2319931,113.4190566c-3.0593084,0-5.0384891-2.139955-5.0384891-4.8414877,0-2.7044811,2.0646092-4.8172681,5.1177027-4.8172681,3.1390486,0,5.0231099,2.112787,5.1321339,4.8172681,0,2.7015326-1.9930852,4.8414877-5.1434049,4.8414877h-.0679425Z" fill="#fff"/>
        <path d="M161.6992117,118.7319831c9.7067179-3.3698869,16.2116204-2.7574482,20.0593635-1.7949844,4.5041135,1.1239976,7.9805716,4.1000536,7.9805716,12.8105614v17.1424909h-9.1733048v-17.0977373c-.0555127-3.5585887-1.5270734-6.1355487-4.4336429-6.7007065-1.6057603-.3156965-3.1199826-.1366825-5.2554837.4874447v23.3109992h-9.1775038v-28.1580679Z" fill="#fff"/>
        <path d="M287.2814876,122.8361435c-6.7523254-1.9389328-9.763284.2807362-9.763284,6.077527v17.9763804h-9.1542243v-18.1019009c0-4.2172551.2993683-8.6236334,3.7258822-11.501021,4.20938-3.5368964,12.0891294-2.851062,16.5392049-1.3701946l-1.3475788,6.919209Z" fill="#fff"/>
        <path d="M313.7865399,146.1327162c-1.6191381.800614-4.6805533,1.399574-8.2171445,1.399574-9.5399691,0-15.3941895-5.1859318-15.3941895-16.1219002,0-10.6273271,5.6916851-16.5979722,16.6831129-16.5979722,2.3773379,0,5.0621725.461751,6.9714093,1.1754905l-1.4010901,6.6666939c-.8013001-.1928087-2.7219133-.8165147-5.154676-.8165147-4.8450727,0-7.9167056,3.108737-7.9167056,9.1934246,0,7.4236074,3.635275,9.3563273,8.1162317,9.3563273,2.1757225,0,3.8658754-.4405852,5.2884368-.9213959l1.024615,6.6662727Z" fill="#fff"/>
      </g>
      <g>
        <polygon points="105.6303253 180.4002177 105.6303253 181.7421913 100.8078828 181.7421913 100.8078828 193.8237443 99.2833375 193.8237443 99.2833375 181.7421913 94.4284511 181.7421913 94.4284511 180.4002177 105.6303253 180.4002177" fill="#fff"/>
        <path d="M108.4602093,179.6546768v6.1977824c.9134842-1.2426734,2.254966-1.9883196,3.5804115-1.9883196,2.1215966,0,3.3647863,1.3929399,3.3647863,3.7781442v6.1814605h-1.4581829v-5.983492c0-1.7882451-.7138702-2.7168015-2.105164-2.7168015-1.3424173,0-2.6514427.9449836-3.3818509,2.4520713v6.2482222h-1.4580776v-14.1690675h1.4580776Z" fill="#fff"/>
        <path d="M119.1812191,189.0680781c.0658358,2.4356441,1.2760549,3.7447633,3.4455799,3.7447633,1.3265114,0,2.3870464-.5295657,3.2156288-1.6062826l.879039.9928962c-1.1279508,1.2766861-2.4688934,1.8900725-4.1605035,1.8900725-3.032026,0-4.9387348-1.95536-4.9387348-5.0702044,0-3.0675637,1.9231413-5.2049915,4.6743384-5.2049915,2.5845536,0,4.4577651,2.0227535,4.4577651,4.8054743v.4482722h-7.5731129ZM125.1799621,187.9575591c-.1496842-1.7899299-1.2771082-2.9334085-2.9173138-2.9334085-1.5914345,0-2.7831142,1.1434786-3.048564,2.9334085h5.9658778Z" fill="#fff"/>
        <path d="M138.8465293,180.4002177c1.8902629,0,3.3823777.380984,4.5740442,1.1769647,1.7564979,1.1599058,2.7023206,3.099365,2.7023206,5.518582,0,4.2753821-2.7023206,6.7279799-7.3916169,6.7279799h-3.9603628v-13.4235266h4.0756149ZM136.2794616,192.4821919h2.3531147c3.6785858,0,5.8490589-1.9892673,5.8490589-5.3694738,0-3.4639219-2.0388016-5.3694738-5.7503579-5.3694738h-2.4518156v10.7389476Z" fill="#fff"/>
        <path d="M154.6368789,187.3106866c0-.7126865-.2479638-1.3255464-.6624657-1.7065304-.4151339-.3804575-1.0117638-.5295657-1.9720178-.5295657-1.2601355,0-2.2703193.3480244-3.2645053,1.1095712l-.6964762-1.0109029c1.1269893-.8447357,2.6020262-1.3409205,3.9949-1.3409205,2.5676079,0,3.9938737,1.2911125,3.9938737,3.6274565v3.4469682c0,1.1446369.2149796,2.3045427.5626977,2.9169813h-1.3923471c-.1481041-.3476032-.3311666-1.043336-.4474724-1.7723444h-.0658358c-.298315.5131385-.7632734.9943704-1.3757957,1.4083141-.5962086.4138384-1.4087933.6298136-2.353668.6298136-1.9385205,0-3.3149618-1.2602589-3.3149618-3.0331298,0-1.0107976.4984556-1.889546,1.443225-2.470078.9279154-.5964327,2.3192092-.8782219,4.2079052-.8782219h1.342944v-.3974112ZM153.4934435,188.7853412c-2.8674893,0-4.3086076.7465939-4.3086076,2.2387287,0,1.0766116.8291091,1.8221524,2.0382749,1.8221524,1.8074811,0,3.3982835-1.3913604,3.3982835-2.9657363v-1.0951448h-1.1279508Z" fill="#fff"/>
        <path d="M161.264169,184.0467339h3.0001089v1.1753852h-3.0001089v6.0666809c0,.5619988.0153792.7949277.098701.9944757.1162923.3310707.4474724.5459929.8451204.5459929.5636594,0,1.2102191-.2149222,1.7729305-.579479l.3656393,1.0608162c-.6475216.4462715-1.476104.6786739-2.3870602.6786739-1.4571295,0-2.1884857-.844841-2.1884857-2.5513714v-6.2157891h-2.3680857v-1.1753852h2.3680857v-2.2212485l1.4931549-.7614415v2.98269Z" fill="#fff"/>
        <path d="M172.4639364,187.3106866c0-.7126865-.2474371-1.3255464-.6629924-1.7065304-.4140805-.3804575-1.0107105-.5295657-1.9725445-.5295657-1.2585689,0-2.2702274.3480244-3.2644914,1.1095712l-.6958714-1.0109029c1.1279508-.8447357,2.6020396-1.3409205,3.9943867-1.3409205,2.5685424,0,3.99386,1.2911125,3.99386,3.6274565v3.4469682c0,1.1446369.2150073,2.3045427.5626201,2.9169813h-1.3913079c-.1491575-.3476032-.3311802-1.043336-.4474724-1.7723444h-.0667698c-.2968543.5131385-.7618127.9943704-1.3743485,1.4083141-.5976833.4138384-1.4093064.6298136-2.3541811.6298136-1.9390472,0-3.3139084-1.2602589-3.3139084-3.0331298,0-1.0107976.497929-1.889546,1.4417503-2.470078.9272834-.5964327,2.3185772-.8782219,4.2088533-.8782219h1.3424173v-.3974112ZM171.3210278,188.7853412c-2.8673701,0-4.309661.7465939-4.309661,2.2387287,0,1.0766116.8285824,1.8221524,2.0389069,1.8221524,1.806849,0,3.3972301-1.3913604,3.3972301-2.9657363v-1.0951448h-1.126476Z" fill="#fff"/>
        <polygon points="191.0553207 180.4002177 191.0553207 181.7262906 183.8118223 181.7262906 183.8118223 186.2011154 190.2745614 186.2011154 190.2745614 187.4767485 183.8118223 187.4767485 183.8118223 192.4812442 191.2692606 192.4812442 191.2692606 193.8237443 182.3038006 193.8237443 182.3038006 180.4002177 191.0553207 180.4002177" fill="#fff"/>
        <path d="M194.9565894,185.7532644c.5796706-1.1769647,1.6258797-1.8891248,2.7517238-1.8891248,1.3923471,0,2.3031979.71216,2.7337111,2.0885675.6460331-1.3429213,1.6901354-2.0885675,2.868016-2.0885675,1.0435905,0,1.8541454.4139437,2.451302,1.2438317.4135687.579479.5801973,1.3244934.5801973,2.5343125v6.1814605h-1.4077264v-6.1479743c0-1.5739547-.7123955-2.5523192-1.8897494-2.5523192-1.0270377,0-2.0393282.9783644-2.385993,2.3199168v6.3803767h-1.4098331v-6.2806553c0-1.4746546-.7288281-2.4196382-1.8546721-2.4196382-1.0601136,0-2.0218423.9948969-2.4369762,2.5024058v6.1978877h-1.4077264v-9.7770104h1.4077264v1.7065304Z" fill="#fff"/>
        <path d="M210.090596,185.521915c.679425-1.0612374,1.8726848-1.6742026,3.2650319-1.6742026,2.6678753,0,4.5396121,2.1049946,4.5396121,5.1211708,0,2.9821635-1.8717368,5.0882112-4.5396121,5.0882112-1.3274594,0-2.603093-.7300614-3.2650319-1.8740665v5.3694738h-1.4592213v-13.5057678h1.4592213v1.4751811ZM210.090596,190.4604915c.7288281,1.5245679,1.7893781,2.3523499,3.0314994,2.3523499,1.9072354,0,3.249126-1.6062826,3.249126-3.877339,0-2.2870625-1.3275648-3.8609119-3.249126-3.8609119-1.2255984,0-2.3026713.694048-3.0314994,1.9712606v3.4146404Z" fill="#fff"/>
        <path d="M229.011159,188.9189699c0,3.0480828-1.9879083,5.1705576-4.8393864,5.1705576-2.8505454,0-4.8554284-2.1384808-4.8554284-5.1540251,0-2.9992225,2.022369-5.1201178,4.8718456-5.1201178,2.8186129,0,4.8229692,2.1373225,4.8229692,5.1035853M220.8408895,188.9355024c0,2.2865359,1.3763359,3.877339,3.330883,3.877339,1.9554645,0,3.3153678-1.5908031,3.3153678-3.877339,0-2.2371491-1.4093064-3.8778656-3.3318157-3.8778656-1.906182,0-3.3144351,1.6560906-3.3144351,3.8778656" fill="#fff"/>
        <path d="M231.3252222,184.0467339l1.6736873,5.6666371.0328652.1003532c.282409.960463.3976479,1.4083141.580724,2.1713351h.0494031c.2489118-.8617947.4967702-1.6747291.7122902-2.2870625l1.7570245-4.9556355h1.3928738l1.7389065,4.9556355c.282409.777974.4140805,1.2427787.7123955,2.2870625h.0494031c.1008077-.4982909.3317069-1.3430266.6135892-2.2716883l1.6567435-5.6666371h1.5758446l-3.1178759,9.9425457h-1.3404159l-1.9390472-5.5021548c-.2494385-.6966806-.4819177-1.5404686-.6135892-2.1873411h-.0658358c-.1502109.7460674-.3826901,1.5590018-.597141,2.1873411l-1.9720334,5.5021548h-1.3424173l-3.1158745-9.9425457h1.5584794Z" fill="#fff"/>
        <path d="M246.3007861,189.0680781c.0658358,2.4356441,1.2755282,3.7447633,3.4450532,3.7447633,1.3259847,0,2.3854663-.5295657,3.2156449-1.6062826l.8785123.9928962c-1.1274402,1.2766861-2.4698575,1.8900725-4.1599929,1.8900725-3.0314994,0-4.9407362-1.95536-4.9407362-5.0702044,0-3.0675637,1.9256694-5.2049915,4.6752864-5.2049915,2.5850803,0,4.4583971,2.0227535,4.4583971,4.8054743v.4482722h-7.5721648ZM252.2990025,187.9575591c-.1491575-1.7899299-1.2765816-2.9334085-2.9173138-2.9334085-1.5913291,0-2.7825717,1.1434786-3.0480214,2.9334085h5.9653352Z" fill="#fff"/>
        <path d="M257.321059,186.6314862c.5801973-1.8725923,1.6407323-2.7991479,3.2013029-2.7991479.4958222,0,.8619743.0811881,1.242663.2802096l-.4485258,1.3100669c-.298315-.1336287-.6460331-.1989162-1.0132386-.1989162-1.4237376,0-2.4514074,1.1928654-2.9822016,3.4125343v5.1875113h-1.4740888v-9.7770104h1.4412236l-.0329705,2.5847523h.0658358Z" fill="#fff"/>
        <path d="M264.6041785,185.7532644c.580092-1.1769647,1.6232463-1.8891248,2.7517238-1.8891248,1.3918205,0,2.3031979.71216,2.7331844,2.0885675.6470864-1.3429213,1.6901354-2.0885675,2.868016-2.0885675,1.043049,0,1.8536188.4139437,2.451302,1.2438317.4135539.579479.5801973,1.3244934.5801973,2.5343125v6.1814605h-1.4082531v-6.1479743c0-1.5739547-.7139756-2.5523192-1.8897494-2.5523192-1.0266164,0-2.0377317.9783644-2.3854663,2.3199168v6.3803767h-1.40929v-6.2806553c0-1.4746546-.7293713-2.4196382-1.8547939-2.4196382-1.060535,0-2.0213156.9948969-2.4368709,2.5024058v6.1978877h-1.4082531v-9.7770104h1.4082531v1.7065304Z" fill="#fff"/>
        <path d="M279.514887,189.0680781c.0679258,2.4356441,1.2756336,3.7447633,3.44925,3.7447633,1.3258794,0,2.3865197-.5295657,3.2156288-1.6062826l.8764055.9928962c-1.1253173,1.2766861-2.46784,1.8900725-4.1578533,1.8900725-3.0336229,0-4.9398049-1.95536-4.9398049-5.0702044,0-3.0675637,1.9226146-5.2049915,4.6743552-5.2049915,2.5861169,0,4.458275,2.0227535,4.458275,4.8054743v.4482722h-7.5762562ZM285.5173001,187.9575591c-.1502109-1.7899299-1.2765816-2.9334085-2.9173138-2.9334085-1.5924711,0-2.786801,1.1434786-3.0521455,2.9334085h5.9694593Z" fill="#fff"/>
        <path d="M290.769729,185.8524592c.9124309-1.2426734,2.2539001-1.9883196,3.5777781-1.9883196,2.1221233,0,3.3658396,1.3929399,3.3658396,3.7781442v6.1814605h-1.4596576v-5.982439c0-1.7892981-.7118688-2.7178545-2.1036893-2.7178545-1.3424173,0-2.650899.9449836-3.3802708,2.4520713v6.2482222h-1.4587096v-9.7770104h1.4587096v1.8057253Z" fill="#fff"/>
        <path d="M302.7045395,184.0467339h2.9995822v1.1753852h-2.9995822v6.0666809c0,.5619988.0164326.7949277.098701.9944757.1173456.3310707.4465244.5459929.8465951.5459929.5637647,0,1.207691-.2149222,1.7714557-.579479l.3652041,1.0608162c-.6470864.4462715-1.4740888.6786739-2.386625.6786739-1.4586042,0-2.1900658-.844841-2.1900658-2.5513714v-6.2157891h-2.3690337v-1.1753852h2.3690337v-2.2212485l1.4947349-.7614415v2.98269Z" fill="#fff"/>
        <path d="M324.1279145,192.2832757c-1.407305,1.2087661-3.0171735,1.7903511-4.9068176,1.7903511-3.8432278,0-6.5270091-2.8515885-6.5270091-6.9284756,0-4.0275002,2.7331844-6.9928154,6.4447407-6.9928154,1.8217016,0,3.2670333.5466247,4.6249352,1.7564438l-.8785123,1.1265249c-1.0790743-1.0771381-2.1715264-1.5249891-3.6971251-1.5249891-2.8339921,0-4.8368737,2.3538242-4.8368737,5.6682167,0,1.3913604.3971213,2.7019538,1.0924521,3.6126089.8960159,1.1599058,2.3526011,1.9059731,3.7609595,1.9059731,1.5913291,0,2.950179-.5465194,4.0797099-1.624184l.8435403,1.2103456Z" fill="#fff"/>
        <path d="M335.112162,188.9189699c0,3.0480828-1.9884504,5.1705576-4.8399285,5.1705576-2.8484233,0-4.855413-2.1384808-4.855413-5.1540251,0-2.9992225,2.0214209-5.1201178,4.8718456-5.1201178,2.818631,0,4.8234959,2.1373225,4.8234959,5.1035853M326.9424192,188.9355024c0,2.2865359,1.3742291,3.877339,3.3298143,3.877339,1.9554979,0,3.3144351-1.5908031,3.3144351-3.877339,0-2.2371491-1.4082531-3.8778656-3.3308497-3.8778656-1.9051467,0-3.3133997,1.6560906-3.3133997,3.8778656" fill="#fff"/>
        <path d="M338.2403791,185.7532644c.5812325-1.1769647,1.6242997-1.8891248,2.7507575-1.8891248,1.3907671,0,2.3051993.71216,2.7373109,2.0885675.643908-1.3429213,1.6880103-2.0885675,2.8648376-2.0885675,1.0462091,0,1.8567789.4139437,2.4544622,1.2438317.4135539.579479.5780906,1.3244934.5780906,2.5343125v6.1814605h-1.4082531v-6.1479743c0-1.5739547-.7118688-2.5523192-1.8896441-2.5523192-1.0266164,0-2.0378535.9783644-2.3855716,2.3199168v6.3803767h-1.4102545v-6.2806553c0-1.4746546-.7283014-2.4196382-1.8558308-2.4196382-1.060535,0-2.0213156.9948969-2.4359046,2.5024058v6.1978877h-1.4072179v-9.7770104h1.4072179v1.7065304Z" fill="#fff"/>
        <path d="M353.8311096,185.521915c.6790036-1.0612374,1.8732115-1.6742026,3.2640839-1.6742026,2.668402,0,4.5416323,2.1049946,4.5416323,5.1211708,0,2.9821635-1.8732303,5.0882112-4.5416323,5.0882112-1.3250367,0-2.6016182-.7300614-3.2640839-1.8740665v5.3694738h-1.4576376v-13.5057678h1.4576376v1.4751811ZM353.8311096,190.4604915c.7283014,1.5245679,1.7909618,2.3523499,3.0316047,2.3523499,1.9060767,0,3.2506007-1.6062826,3.2506007-3.877339,0-2.2870625-1.3280915-3.8609119-3.2506007-3.8609119-1.224229,0-2.3033033.694048-3.0316047,1.9712606v3.4146404Z" fill="#fff"/>
        <path d="M370.0370276,187.3106866c0-.7126865-.2489118-1.3255464-.663519-1.7065304-.4135539-.3804575-1.0101838-.5295657-1.9720178-.5295657-1.2590956,0-2.2702274.3480244-3.2639597,1.1095712l-.6954551-1.0109029c1.1254227-.8447357,2.6016182-1.3409205,3.9934387-1.3409205,2.5685424,0,3.99228,1.2911125,3.99228,3.6274565v3.4469682c0,1.1446369.217119,2.3045427.5647318,2.9169813h-1.3918395c-.1501055-.3476032-.3311802-1.043336-.4484015-1.7723444h-.0658548c-.298315.5131385-.7623253.9943704-1.3753879,1.4083141-.5966299.4138384-1.4103598.6298136-2.3526011.6298136-1.9390472,0-3.3164177-1.2602589-3.3164177-3.0331298,0-1.0107976.4988582-1.889546,1.4432062-2.470078.9288635-.5964327,2.3196305-.8782219,4.20938-.8782219h1.3424173v-.3974112ZM368.8921175,188.7853412c-2.8649612,0-4.3081863.7465939-4.3081863,2.2387287,0,1.0766116.8301625,1.8221524,2.0378535,1.8221524,1.8073757,0,3.3988292-1.3913604,3.3988292-2.9657363v-1.0951448h-1.1284965Z" fill="#fff"/>
        <path d="M375.6516058,185.8524592c.9103241-1.2426734,2.2548482-1.9883196,3.5776728-1.9883196,2.1222286,0,3.3638382,1.3929399,3.3638382,3.7781442v6.1814605h-1.4576562v-5.982439c0-1.7892981-.7118688-2.7178545-2.1036893-2.7178545-1.3424173,0-2.6508969.9449836-3.3801655,2.4520713v6.2482222h-1.4587096v-9.7770104h1.4587096v1.8057253Z" fill="#fff"/>
        <path d="M385.8900659,184.0467339l2.2548676,6.2801288c.0822489.2328236.1152194.31517.2818629.7630211.2160466.579479.298315.8442092.5122548,1.4581221h.0515099c.2139399-.496606.4134485-1.0107976.7776187-2.0217005l.0493836-.132681,2.3536545-6.3468905h1.689082l-4.7216348,11.5174482c-.5801973,1.4247412-1.5070594,1.9883196-3.2815699,1.9883196h-.6624657l-.4134485-1.2088714h.8949449c1.225177,0,1.7230201-.2663097,2.0542861-1.1100977l.4803376-1.2278258-4.0591497-9.9589729h1.7384658Z" fill="#fff"/>
      </g>
    </g>
  </g>
</svg>